HIERARCHY
ROOT root
{
	OFFSET	0	13.1	24.9
	CHANNELS 6  Xposition Yposition Zposition Xrotation Yrotation Zrotation
	JOINT spine_1
	{
		OFFSET	0	9.99999	0
		CHANNELS 3  Xrotation Yrotation Zrotation
		JOINT spine_2
		{
			OFFSET	0	112	-10
			CHANNELS 3  Xrotation Yrotation Zrotation
			JOINT spine_3
			{
				OFFSET	0	206.5	19.3
				CHANNELS 3  Xrotation Yrotation Zrotation
				JOINT spine_4
				{
					OFFSET	0	110.4	14.6
					CHANNELS 3  Xrotation Yrotation Zrotation
					JOINT neck_1
					{
						OFFSET	0	71.8	-50.3
						CHANNELS 3  Xrotation Yrotation Zrotation
						JOINT neck_2
						{
							OFFSET	0	86.2	-25.8
							CHANNELS 3  Xrotation Yrotation Zrotation
							JOINT head_ee
							{
								OFFSET	0	179.8	-8.7
								CHANNELS 3  Xrotation Yrotation Zrotation
								End Site
								{
									OFFSET	1	0	0
								}
							}
						}
					}
					JOINT left_clavicle
					{
						OFFSET	-43.2	22.4	-70.8
						CHANNELS 3  Xrotation Yrotation Zrotation
						JOINT left_shoulder
						{
							OFFSET	-93.9	-5.79999	48.7
							CHANNELS 3  Xrotation Yrotation Zrotation
							JOINT left_elbow
							{
								OFFSET	-291.4	-30.8	15.2
								CHANNELS 3  Xrotation Yrotation Zrotation
								JOINT left_lowarm_twist
								{
									OFFSET	-110.7	-3.89999	13.6
									CHANNELS 3  Xrotation Yrotation Zrotation
									JOINT left_hand
									{
										OFFSET	-110.7	-3.89999	13.6
										CHANNELS 3  Xrotation Yrotation Zrotation
										JOINT left_ee
										{
											OFFSET	-80.8	-5.10001	12.1
											CHANNELS 3  Xrotation Yrotation Zrotation
											End Site
											{
												OFFSET	1	0	0
											}
										}
									}
								}
							}
						}
					}
					JOINT right_clavicle
					{
						OFFSET	43.2	22.4	-70.8
						CHANNELS 3  Xrotation Yrotation Zrotation
						JOINT right_shoulder
						{
							OFFSET	93.9	-5.79999	48.7
							CHANNELS 3  Xrotation Yrotation Zrotation
							JOINT right_elbow
							{
								OFFSET	291.4	-30.8	15.2
								CHANNELS 3  Xrotation Yrotation Zrotation
								JOINT right_lowarm_twist
								{
									OFFSET	110.7	-3.89999	13.6
									CHANNELS 3  Xrotation Yrotation Zrotation
									JOINT right_hand
									{
										OFFSET	110.7	-3.89999	13.6
										CHANNELS 3  Xrotation Yrotation Zrotation
										JOINT right_ee
										{
											OFFSET	80.8	-5.10001	12.1
											CHANNELS 3  Xrotation Yrotation Zrotation
											End Site
											{
												OFFSET	1	0	0
											}
										}
									}
								}
							}
						}
					}
				}
			}
		}
	}
	JOINT left_hip
	{
		OFFSET	-82.8	-127.5	0.300001
		CHANNELS 3  Xrotation Yrotation Zrotation
		JOINT left_knee
		{
			OFFSET	-28.2	-396.7	2.2
			CHANNELS 3  Xrotation Yrotation Zrotation
			JOINT left_ankle
			{
				OFFSET	-11.7	-411.3	35.4
				CHANNELS 3  Xrotation Yrotation Zrotation
				JOINT left_toes
				{
					OFFSET	0	-60	-88.6
					CHANNELS 3  Xrotation Yrotation Zrotation
					JOINT left_foot_ee
					{
						OFFSET	-22.5	-16.5	-42.2
						CHANNELS 3  Xrotation Yrotation Zrotation
						End Site
						{
							OFFSET	1	0	0
						}
					}
				}
			}
		}
	}
	JOINT right_hip
	{
		OFFSET	82.8	-127.5	0.300001
		CHANNELS 3  Xrotation Yrotation Zrotation
		JOINT right_knee
		{
			OFFSET	28.2	-396.7	2.2
			CHANNELS 3  Xrotation Yrotation Zrotation
			JOINT right_ankle
			{
				OFFSET	11.7	-411.3	35.4
				CHANNELS 3  Xrotation Yrotation Zrotation
				JOINT right_toes
				{
					OFFSET	0	-60	-88.6
					CHANNELS 3  Xrotation Yrotation Zrotation
					JOINT right_foot_ee
					{
						OFFSET	22.5	-16.5	-42.2
						CHANNELS 3  Xrotation Yrotation Zrotation
						End Site
						{
							OFFSET	1	0	0
						}
					}
				}
			}
		}
	}
}
MOTION
Frames: 5
Frame Time: 0.02
3574.42 741.953 -1474.73 178.459829436 70.9043706459 171.562091297 -0.738237 0.964614 5.12366 -0.723864 0.637075 5.17447 -0.655319 -0.524608 5.18705 -0.692719 0.300029 5.20482 -12.8896 7.03658 3.60353 -12.9311 11.1186 5.52693 -0.0 0.0 -0.0 -4.39906 23.9042 -3.22034 11.4526 0.399323 72.282 1.06873 -27.8969 0.265451 32.0081 -6.58473e-05 -4.03612 -5.48588 29.1632 -18.4226 -0.0 0.0 -0.0 12.0192 26.7264 -23.3407 -4.36688 13.9763 -64.8295 1.12709 29.1749 -0.29333 3.44465 -0.108567 0.42652 -0.498106 4.75483 5.37794 0.0 0.0 0.0 -11.6406 27.2738 13.7939 1.96975 -0.0861105 -0.289974 21.9744 15.7155 -3.00747 -27.0976 0.0 0.0 -0.0 0.0 -0.0 13.3253 12.4326 9.59371 -35.4011 0.200401 -5.34381 36.4962 23.0573 5.15968 -17.731 0.0 0.0 0.0 0.0 0.0 
3577.87715358 741.708 -1476.78888469 178.197400574 72.9040127869 171.642328065 -0.81689 0.939052 5.05905 -0.802868 0.615659 5.10837 -0.736967 -0.538206 5.11709 -0.773381 0.275597 5.13788 -12.8801 7.08956 3.77748 -12.9177 11.1092 5.70713 -0.0 0.0 -0.0 -4.39878 23.9265 -3.21457 12.3064 0.305868 72.4148 1.11904 -29.0005 0.289419 31.8722 0.00470493 -4.01941 -5.50743 29.1052 -18.5916 -0.0 0.0 -0.0 11.8823 26.568 -23.0476 -4.70774 13.7239 -65.0349 1.07989 28.1435 -0.27069 3.43246 -0.108228 0.425001 -0.493731 4.64643 5.30162 0.0 0.0 0.0 -11.4917 27.2975 13.7882 1.80911 -0.0787144 -0.266436 21.9685 15.4965 -3.00501 -27.1479 0.0 0.0 -0.0 0.0 -0.0 13.4268 12.7877 9.66367 -35.7086 0.216561 -5.38821 36.4446 22.7558 5.14002 -17.6895 0.0 0.0 0.0 0.0 0.0 
3579.18815885 742.551 -1475.86740152 178.385074211 75.8867572283 171.481381102 -0.911154 0.912393 5.19531 -0.896332 0.580419 5.24265 -0.831375 -0.611386 5.23914 -0.869589 0.222524 5.26991 -12.6912 7.22474 3.96834 -12.7238 11.2262 5.91051 -0.0 0.0 -0.0 -4.15504 22.8737 -3.12619 13.0404 0.196542 72.5132 1.00489 -26.4632 0.236285 31.7301 0.0096485 -4.00194 -5.35774 28.8567 -17.9247 -0.0 0.0 -0.0 12.0927 26.9164 -23.4858 -5.1385 14.1772 -65.0983 1.10894 28.7807 -0.284535 3.96941 -0.122846 0.492032 -0.477481 3.45315 4.6776 0.0 0.0 0.0 -11.4075 27.3005 14.047 1.77603 -0.0771995 -0.261586 22.0361 15.8137 -3.01587 -27.2261 0.0 0.0 -0.0 0.0 -0.0 13.7943 13.0568 9.62705 -35.0897 0.184282 -5.29877 36.6722 22.4168 5.14686 -17.5914 0.0 0.0 0.0 0.0 0.0 
3580.34321047 741.616 -1475.03498324 177.969151419 78.823478987 171.669608316 -0.900772 0.977196 5.24802 -0.885686 0.641751 5.29937 -0.814126 -0.562536 5.30834 -0.853315 0.281648 5.33056 -12.9985 7.22752 4.21739 -13.0276 11.1084 6.17766 -0.0 0.0 -0.0 -4.19437 23.8224 -2.95876 14.1008 0.0592412 72.7234 1.20534 -30.8398 0.332468 31.5328 0.0164423 -3.97765 -5.57519 29.0177 -19.0509 -0.0 0.0 -0.0 12.0491 26.7654 -23.4043 -5.55564 13.2923 -66.1876 0.942417 25.0249 -0.209148 3.50323 -0.110191 0.433828 -0.487103 4.29075 5.10352 0.0 0.0 0.0 -11.286 27.1311 14.1514 1.60929 -0.0696069 -0.237128 22.0088 15.2588 -3.00811 -27.4027 0.0 0.0 -0.0 0.0 -0.0 13.968 13.4577 9.79068 -35.9192 0.227766 -5.41857 36.3952 21.9069 5.09557 -17.6085 0.0 0.0 0.0 0.0 0.0 
3582.90983208 741.553 -1474.92091171 179.860808234 81.667600709 169.808167289 -0.825265 0.974001 5.20817 -0.81041 0.641088 5.25939 -0.739846 -0.547342 5.26994 -0.778461 0.290615 5.29026 -13.0115 7.23718 4.40115 -13.0348 11.013 6.35611 -0.0 0.0 -0.0 -4.07674 23.6666 -2.8333 15.4984 -0.142628 72.7931 1.28777 -32.5332 0.37577 31.2487 0.0260752 -3.94265 -5.6238 28.9017 -19.4244 -0.0 0.0 -0.0 12.0102 27.2113 -23.2622 -5.97359 13.0402 -66.9126 0.849685 22.8265 -0.171534 3.57987 -0.112304 0.443389 -0.478282 4.06035 4.94463 0.0 0.0 0.0 -11.0416 27.389 14.3533 1.58727 -0.0686093 -0.233898 22.1905 15.1297 -3.02943 -27.5619 0.0 0.0 -0.0 0.0 -0.0 14.458 14.2413 9.86015 -36.0342 0.233932 -5.43513 36.4317 21.2652 5.07049 -17.4449 0.0 0.0 0.0 0.0 0.0 
